<svg width="52" height="52" viewBox="0 0 52 52" fill="none" xmlns="http://www.w3.org/2000/svg">
<path d="M20.6875 13.25V11.125C20.6875 8.19099 23.066 5.8125 26 5.8125C28.934 5.8125 31.3125 8.19099 31.3125 11.125V11.5846C31.3125 13.3313 30.6187 15.0063 29.3836 16.2414C28.2967 17.3282 27.1677 18.3665 26 19.3545C19.5595 24.803 11.9397 28.7183 3.71606 30.774L1.5625 31.3125V37.6875L3.22476 38.2415C10.5685 40.6895 18.259 41.9375 26 41.9375C33.741 41.9375 41.4315 40.6895 48.7753 38.2415L50.4375 37.6875V31.3125L48.284 30.774C41.8038 29.1541 35.6987 26.3795 30.25 22.6102" stroke="black"/>
</svg>
