<svg width="22" height="22" viewBox="0 0 22 22" fill="none" xmlns="http://www.w3.org/2000/svg">
<g clip-path="url(#clip0_10_66)">
<path d="M0.458313 8.7085V8.93766L4.81248 13.2918H5.04165C6.43386 11.8996 8.6911 11.8996 10.0833 13.2918L18.3333 21.5418H21.5416V18.3335L20.625 17.4168H18.7916V15.5835H16.9583V13.7502L13.2916 10.0835C11.8994 8.69128 11.8994 6.43404 13.2916 5.04183V4.81266L8.93748 0.458496H8.70831C4.15197 0.458496 0.458313 4.15215 0.458313 8.7085Z" stroke="#161616"/>
<path d="M4.125 5.5C4.125 4.74061 4.74061 4.125 5.5 4.125C6.25939 4.125 6.875 4.74061 6.875 5.5C6.875 6.25939 6.25939 6.875 5.5 6.875C4.74061 6.875 4.125 6.25939 4.125 5.5Z" stroke="#161616"/>
</g>
<defs>
<clipPath id="clip0_10_66">
<rect width="22" height="22" fill="white"/>
</clipPath>
</defs>
</svg>
