<svg width="24" height="24" viewBox="0 0 24 24" fill="none" xmlns="http://www.w3.org/2000/svg">
<path d="M11.9997 23.9198C11.9777 21.4016 10.9061 19.0052 9.04089 17.3096L6.47309 14.9753C4.73876 13.3986 3.75 11.1422 3.75 8.79828C3.75 4.24201 7.4435 0.500678 11.9997 0.500488C16.556 0.500678 20.2498 4.24201 20.2498 8.79828C20.2498 11.1422 19.2611 13.3986 17.5267 14.9753L14.9589 17.3096C13.0938 19.0052 12.0218 21.4016 11.9997 23.9198ZM11.9997 23.9198V23.9989C11.9997 23.9803 11.9998 23.9617 11.9999 23.9431M12.0001 11.4997C10.6194 11.4997 9.50015 10.3805 9.50015 8.9997C9.50015 7.61899 10.6194 6.4997 12.0001 6.4997C13.3809 6.4997 14.5001 7.61899 14.5001 8.9997C14.5001 10.3805 13.3809 11.4997 12.0001 11.4997Z" stroke="black"/>
</svg>
