<svg width="58" height="40" viewBox="0 0 58 40" fill="none" xmlns="http://www.w3.org/2000/svg">
<rect x="0.5" y="0.500092" width="57" height="39" fill="white" stroke="#F3F3F3"/>
<path d="M43.9463 33.9187C44.3696 33.9186 44.6814 33.752 44.8867 33.4861V33.8445H45.5342V29.7048H44.8867V31.2498C44.6814 30.9838 44.3696 30.8162 43.9463 30.8162C43.1115 30.8162 42.457 31.4661 42.457 32.3679C42.4572 33.2703 43.1116 33.9187 43.9463 33.9187ZM26.5996 33.9187C26.8804 33.9187 27.2039 33.8323 27.4092 33.6902L27.2227 33.1404C27.0295 33.2514 26.8176 33.3064 26.6494 33.3064C26.3258 33.3064 26.2207 33.1086 26.2207 32.8123V31.4773H27.2793V30.8904H26.2207V29.9949H25.5654V30.8904H24.9619V31.4773H25.5654V32.825C25.5654 33.5103 25.834 33.9187 26.5996 33.9187ZM13.5322 32.2068C13.5323 31.6942 13.8192 31.4217 14.2617 31.4216C14.6916 31.4216 14.9092 31.7002 14.9092 32.2009V33.8445H15.5635V32.2068C15.5636 31.6942 15.8623 31.4217 16.292 31.4216C16.734 31.4216 16.9463 31.7002 16.9463 32.2009V33.8445H17.6006V31.991C17.6006 31.2929 17.1516 30.8225 16.4287 30.8162C16.049 30.8099 15.6572 30.9275 15.3828 31.3416C15.1775 31.0142 14.8532 30.8162 14.3984 30.8162C14.0807 30.8162 13.7703 30.9092 13.5273 31.2546V30.8904H12.8789V33.8445H13.5322V32.2068ZM19.6621 33.9187C20.0855 33.9187 20.3973 33.752 20.6025 33.4861V33.8445H21.25V30.8904H20.6025V31.2498C20.3973 30.9838 20.0855 30.8162 19.6621 30.8162C18.8273 30.8162 18.1729 31.4661 18.1729 32.3679C18.173 33.2703 18.8274 33.9187 19.6621 33.9187ZM23.168 33.9187C24.0275 33.9187 24.5253 33.517 24.5254 32.9548C24.5254 32.4357 24.1334 32.1637 23.4854 32.071L23.1807 32.0271C22.9005 31.9903 22.6758 31.9351 22.6758 31.7371C22.676 31.5209 22.8876 31.3915 23.2422 31.3914C23.6221 31.3914 23.9905 31.5333 24.1709 31.6443L24.4512 31.1257C24.1397 30.9221 23.7105 30.8162 23.2373 30.8162C22.4831 30.8162 21.9971 31.1754 21.9971 31.7625C21.9972 32.2439 22.3588 32.5409 23.0244 32.6335L23.3301 32.6765C23.6851 32.726 23.8525 32.8192 23.8525 32.9861C23.8523 33.2143 23.6156 33.3445 23.1738 33.3445C22.7256 33.3444 22.4017 33.2018 22.1836 33.0349L21.8789 33.5349C22.2339 33.7945 22.6825 33.9187 23.168 33.9187ZM29.3408 33.9187C29.7892 33.9187 30.2001 33.8073 30.5615 33.5046L30.2441 33.0291C29.9947 33.2263 29.6766 33.3376 29.3779 33.3376C28.9609 33.3376 28.5807 33.1459 28.4873 32.614H30.6982C30.7046 32.5343 30.7109 32.4539 30.7109 32.3679C30.7045 31.447 30.1309 30.8162 29.2969 30.8162C28.4245 30.8163 27.8145 31.4471 27.8145 32.3679C27.8146 33.307 28.4498 33.9187 29.3408 33.9187ZM32.0244 32.1882C32.0245 31.6997 32.2368 31.4285 32.6602 31.4285C32.7912 31.4285 32.9278 31.4469 33.0645 31.5027L33.2646 30.8972C33.1214 30.8413 32.9339 30.8162 32.8027 30.8162C32.4294 30.8163 32.186 30.9903 32.0186 31.2498V30.8904H31.377V33.8445H32.0244V32.1882ZM35.0459 33.9187C35.4942 33.9187 35.7926 33.8193 36.1162 33.5662L35.8057 33.0476C35.5626 33.2208 35.3072 33.3132 35.0264 33.3132C34.5097 33.3068 34.13 32.9363 34.1299 32.3679C34.1299 31.7993 34.5096 31.4281 35.0264 31.4216C35.3072 31.4216 35.5626 31.5149 35.8057 31.6882L36.1162 31.1687C35.7927 30.9156 35.4942 30.8162 35.0459 30.8162C34.0864 30.8162 33.457 31.4718 33.457 32.3679L33.4648 32.533C33.5376 33.3432 34.1464 33.9187 35.0459 33.9187ZM37.9355 33.9187C38.3589 33.9187 38.67 33.7519 38.876 33.4861V33.8445H39.5234V30.8904H38.876V31.2498C38.67 30.9838 38.359 30.8162 37.9355 30.8162C37.1009 30.8163 36.4463 31.4662 36.4463 32.3679C36.4465 33.2702 37.101 33.9186 37.9355 33.9187ZM41.0244 32.1882C41.0245 31.6997 41.2368 31.4285 41.6602 31.4285C41.7912 31.4285 41.9278 31.4469 42.0645 31.5027L42.2646 30.8972C42.1214 30.8413 41.9339 30.8162 41.8027 30.8162C41.4294 30.8163 41.1867 30.9902 41.0186 31.2498V30.8904H40.377V33.8445H41.0244V32.1882ZM28.4932 32.1082C28.5623 31.6817 28.8231 31.3914 29.2842 31.3914C29.7012 31.3914 29.9697 31.6512 30.0381 32.1082H28.4932ZM19.7422 33.3132C19.1822 33.3131 18.839 32.8868 18.8389 32.3679C18.8389 31.8488 19.1821 31.4218 19.7422 31.4216C20.2776 31.4216 20.6396 31.8304 20.6396 32.3679C20.6395 32.9053 20.2774 33.3132 19.7422 33.3132ZM38.0166 33.3132C37.4564 33.3132 37.1134 32.8869 37.1133 32.3679C37.1133 31.8488 37.4563 31.4216 38.0166 31.4216C38.5518 31.4217 38.9131 31.8304 38.9131 32.3679C38.9129 32.9052 38.5517 33.3131 38.0166 33.3132ZM44.0264 33.3132C43.4663 33.3131 43.1232 32.8868 43.123 32.3679C43.123 31.8488 43.4662 31.4218 44.0264 31.4216C44.5624 31.4216 44.9238 31.8304 44.9238 32.3679C44.9237 32.9053 44.5623 33.3132 44.0264 33.3132Z" fill="#231F20"/>
<path d="M34.0469 25.8717H24.2363V8.37842H34.0469V25.8717Z" fill="#FF5F00"/>
<path d="M24.8583 17.1254C24.8583 13.5768 26.5328 10.4159 29.1405 8.37879C27.2336 6.88919 24.8269 6.0001 22.2114 6.0001C16.0194 6.0001 11 10.981 11 17.1254C11 23.2698 16.0194 28.2507 22.2114 28.2507C24.8269 28.2507 27.2336 27.3616 29.1405 25.872C26.5328 23.835 24.8583 20.674 24.8583 17.1254Z" fill="#EB001B"/>
<path d="M47.2819 17.1254C47.2819 23.2698 42.2625 28.2507 36.0705 28.2507C33.4549 28.2507 31.0483 27.3616 29.1406 25.872C31.749 23.835 33.4236 20.674 33.4236 17.1254C33.4236 13.5768 31.749 10.4159 29.1406 8.37879C31.0483 6.88919 33.4549 6.0001 36.0705 6.0001C42.2625 6.0001 47.2819 10.981 47.2819 17.1254Z" fill="#F79E1B"/>
</svg>
