<!DOCTYPE svg PUBLIC "-//W3C//DTD SVG 1.1//EN" "http://www.w3.org/Graphics/SVG/1.1/DTD/svg11.dtd">
<!-- Uploaded to: SVG Repo, www.svgrepo.com, Transformed by: SVG Repo Mixer Tools -->
<svg fill="#000000" height="64px" width="64px" version="1.1" xmlns="http://www.w3.org/2000/svg" viewBox="0 0 364.903 364.903" xmlns:xlink="http://www.w3.org/1999/xlink" enable-background="new 0 0 364.903 364.903">
<g id="SVGRepo_bgCarrier" stroke-width="0"/>
<g id="SVGRepo_tracerCarrier" stroke-linecap="round" stroke-linejoin="round"/>
<g id="SVGRepo_iconCarrier"> <path d="m361.762,301.3l-68.339-48.808c12.414-19.792 19.605-43.177 19.605-68.214 0-26.1-7.814-50.406-21.215-70.716l69.949-49.958c3.37-2.407 4.151-7.091 1.744-10.462s-7.091-4.154-10.463-1.744l-70.205,50.141c-23.636-28.111-59.045-46.011-98.561-46.011-40.279,0-76.291,18.597-99.918,47.65l-72.5-51.78c-3.372-2.408-8.056-1.627-10.462,1.744-2.408,3.371-1.626,8.055 1.744,10.462l72.441,51.738c-12.693,19.943-20.056,43.595-20.056,68.935 0,24.277 6.757,47.005 18.485,66.406l-70.869,50.617c-3.371,2.407-4.152,7.091-1.744,10.462 1.464,2.05 3.769,3.142 6.109,3.142 1.508,0 3.032-0.454 4.353-1.397l70.649-50.458c23.573,30.385 60.423,49.98 101.769,49.98 40.584,0 76.835-18.88 100.451-48.313l68.314,48.791c1.321,0.944 2.845,1.397 4.353,1.397 2.341,0 4.646-1.092 6.11-3.142 2.407-3.371 1.626-8.055-1.744-10.462zm-63.735-117.022c0,21.79-6.163,42.164-16.831,59.482l-85.841-61.308 84.246-60.169c11.647,17.845 18.426,39.142 18.426,61.995zm-113.75-113.75c34.491,0 65.442,15.434 86.32,39.754l-88.145,62.954-85.869-61.328c20.88-25.259 52.44-41.38 87.694-41.38zm-113.75,113.75c0-22.094 6.338-42.731 17.282-60.204l81.739,58.378-83.288,59.484c-9.99-16.918-15.733-36.629-15.733-57.658zm113.75,113.75c-36.322,0-68.721-17.113-89.561-43.699l87.735-62.661 90.056,64.318c-20.874,25.636-52.67,42.042-88.23,42.042z"/> </g>
</svg>